<?xml version="1.0" encoding="UTF-8"?>
<svg id="Flat" xmlns="http://www.w3.org/2000/svg" viewBox="0 0 3067.24 1596.88">
  <path d="M2476.21,38.31c11.92-12.36,22.84-25.12,32.74-38.29h-119.26c-46.9,41.11-101.36,61.65-163.45,61.65-69.02,0-128.13-20.55-177.23-61.68l-121.03.06c10.65,14.09,22.51,27.69,35.57,40.82,71.46,71.89,158.01,107.85,259.49,107.85s182.12-36.82,253.18-110.42"/>
  <g>
    <polygon points="2517.63 1585.78 2517.63 847.84 2753.61 847.84 2753.61 938.71 2614.01 938.71 2614.01 1161.42 2711.54 1161.42 2711.54 1248.96 2614.01 1248.96 2614.01 1493.83 2753.61 1493.83 2753.61 1585.78 2517.63 1585.78"/>
    <path d="M2546.08,737.97c24.43-50.23,36.65-105.47,36.65-165.75,0-102.4-35.45-189.88-106.23-262.41-70.89-72.53-157.49-108.79-259.87-108.79s-185.39,37-255.36,111.05c-69.96,74.02-104.95,163.73-104.95,269.12,0,56.78,11.43,109.02,34.36,156.73l104.18.33c-29.67-44.87-44.45-97.22-44.45-157.06,0-85.75,25.4-156.18,76.12-211.21,50.74-55.01,114.61-82.56,191.38-82.56s141.54,27.28,192.96,81.92c51.39,54.63,77.13,122.67,77.13,204.17,0,62.75-15.23,117.57-45.68,164.48h103.75Z"/>
    <polygon points="1134.74 .14 1134.74 94.32 1226.73 94.32 1226.73 738.08 1323.12 738.08 1323.12 94.32 1411.78 94.32 1411.78 .14 1134.74 .14"/>
    <polygon points="1798.49 .14 1749.73 497.64 1700.98 .14 1625.65 .14 1568.02 497.64 1527.02 .14 1431.71 .14 1515.95 738.09 1600.15 738.09 1655.53 295.98 1704.32 738.09 1789.62 738.09 1887.15 .14 1798.49 .14"/>
    <path d="M1298.72,1596.88c-83.09,0-144.04-63.15-144.04-151.81v-456.49c0-87.55,60.95-151.8,144.04-151.8s134.09,62.04,134.09,148.48v122.99h-84.2v-128.53c0-27.72-15.53-48.76-47.68-48.76s-47.62,21.04-47.62,48.76v474.23c0,27.72,15.53,48.76,47.62,48.76s47.68-21.04,47.68-48.76v-129.64h84.2v124.09c0,87.53-48.75,148.49-134.09,148.49"/>
    <rect x="1473.81" y="847.85" width="97.52" height="737.94"/>
    <path d="M1848.32,1589.09c-35.43,0-49.87-44.31-49.87-97.47v-176.19c0-25.48-13.28-45.42-38.78-45.42h-43.21v315.76h-97.51v-737.92h149.61c63.15,0,121.89,34.36,121.89,130.75v155.1c0,44.36-18.85,76.48-56.53,94.23,37.68,17.7,58.73,50.95,58.73,94.16v163.99c0,33.22,5.52,56.51,16.59,75.35v27.67h-60.93ZM1794.04,979.69c0-28.8-9.97-42.09-31.05-42.09h-46.52v248.22h42.1c23.26,0,35.47-14.43,35.47-45.45v-160.68Z"/>
    <path d="M2077.69,1596.88c-83.09,0-144.03-63.15-144.03-151.81v-456.49c0-87.55,60.95-151.8,144.03-151.8s134.08,62.04,134.08,148.48v122.99h-84.17v-128.53c0-27.72-15.53-48.76-47.7-48.76s-47.61,21.04-47.61,48.76v474.23c0,27.72,15.53,48.76,47.61,48.76s47.7-21.04,47.7-48.76v-129.64h84.17v124.09c0,87.53-48.74,148.49-134.08,148.49"/>
    <polygon points="2252.79 1585.78 2252.79 847.84 2349.2 847.84 2349.2 1493.83 2483.26 1493.83 2483.26 1585.78 2252.79 1585.78"/>
    <path d="M2925.41,1596.88c-87.55,0-140.72-57.62-140.72-150.69v-79.79h88.6v83.13c0,38.76,16.65,62.05,48.8,62.05,34.33,0,50.93-22.19,50.93-58.74,0-68.69-26.57-124.07-77.53-199.44-47.65-67.57-106.38-167.3-106.38-252.63,0-93.08,45.43-163.98,141.81-163.98,79.79,0,131.9,57.63,131.9,150.69v84.19h-87.58v-87.51c0-36.58-15.5-58.74-44.32-58.74s-47.61,18.85-47.61,53.19c0,81.99,27.67,120.77,83.08,204.97,56.54,83.12,100.85,166.22,100.85,251.52,0,116.38-70.93,161.78-141.83,161.78"/>
  </g>
  <g>
    <path d="M98.59,488.08l-35.26-212.29-20.15,87.79v124.5H0V8.79h43.18v259.08L100.03,8.79h41.02l-49.66,207.26,51.1,272.02h-43.9Z"/>
    <path d="M278.5,488.08l-63.33-247.56-14.4-72.68v320.24h-41.02V8.79h42.46l54.69,250.44,12.95,74.12V8.79h41.02v479.28h-32.38Z"/>
    <path d="M405.17,493.83c-38.86,0-71.25-33.1-71.25-82.04V85.08c0-48.22,32.38-82.04,71.25-82.04s71.25,33.82,71.25,82.04v326.71c0,48.94-32.38,82.04-71.25,82.04ZM433.23,76.44c0-15.83-10.79-29.5-28.06-29.5s-28.07,13.67-28.07,29.5v343.99c0,16.55,10.07,29.5,28.07,29.5s28.06-12.95,28.06-29.5V76.44Z"/>
    <path d="M668.56,488.08h-39.58l-26.63-301.53-31.67,301.53h-39.58L491.53,8.79h42.46l21.59,338.96L591.56,8.79h32.38l29.51,338.96,27.35-338.96h38.86l-51.1,479.28Z"/>
    <path d="M172.57,599.83v173.44h54.69v40.3h-54.69v224.53h-43.9v-479.29h112.26v41.02h-68.36Z"/>
    <path d="M338.1,1038.1l-7.2-97.15h-47.49l-10.07,97.15h-39.58l53.97-479.29h45.34l50.37,479.29h-45.33ZM310.03,676.11l-22.31,222.37h39.58l-17.27-222.37Z"/>
    <path d="M519.46,1038.1l-63.33-247.56-14.4-72.68v320.25h-41.02v-479.29h42.46l54.69,250.44,12.95,74.12v-324.55h41.02v479.29h-32.38Z"/>
    <path d="M643.24,1043.85c-44.62,0-71.25-33.1-71.25-81.31v-64.77h41.74v66.92c0,23.74,11.52,41.74,28.07,41.74,22.31,0,30.94-15.1,30.94-41.74,0-48.21-16.55-92.83-42.46-146.81-23.03-47.5-54.69-120.18-54.69-169.83,0-55.42,21.59-95,72.68-95,39.58,0,64.77,33.1,64.77,82.04v69.8h-41.02v-68.36c0-28.78-8.64-42.46-24.47-42.46-18.71,0-30.22,12.23-30.22,38.14,0,56.14,17.27,93.56,46.78,155.45,27.35,58.3,50.38,113.7,50.38,164.08,0,74.85-42.46,92.11-71.25,92.11Z"/>
    <path d="M212.09,1588.11h-72.68v-479.28h72.68c28.07,0,63.33,14.39,63.33,75.56v100.03c0,28.07-7.2,50.38-30.23,59.73,23.03,10.08,30.23,31.67,30.23,60.46v107.94c0,61.17-35.26,75.56-63.33,75.56ZM232.24,1180.08c0-19.43-8.64-27.35-20.87-27.35h-28.06v171.99h23.75c15.11,0,25.19-12.23,25.19-31.66v-112.98ZM232.24,1394.53c0-19.43-10.07-31.66-25.19-31.66h-23.75v181.34h28.06c12.23,0,20.87-7.91,20.87-27.35v-122.34Z"/>
    <path d="M297.74,1588.11v-479.28h116.58v41.01h-73.41v171.28h53.26v41.02h-53.26v184.95h73.41v41.01h-116.58Z"/>
    <path d="M500.68,1593.88c-44.62,0-71.25-33.11-71.25-81.32v-64.77h41.74v66.93c0,23.74,11.52,41.74,28.07,41.74,22.31,0,30.94-15.12,30.94-41.74,0-48.21-16.55-92.84-42.46-146.81-23.03-47.5-54.69-120.19-54.69-169.84,0-55.42,21.59-95,72.68-95,39.58,0,64.77,33.11,64.77,82.05v69.79h-41.02v-68.36c0-28.78-8.64-42.46-24.47-42.46-18.71,0-30.22,12.23-30.22,38.14,0,56.14,17.27,93.57,46.78,155.45,27.35,58.29,50.38,113.71,50.38,164.09,0,74.83-42.46,92.11-71.25,92.11Z"/>
    <path d="M674.12,1151.3v436.81h-43.18v-436.81h-46.78v-42.46h133.14v42.46h-43.18Z"/>
    <rect x="898.14" y="8.76" width="8.79" height="1579.36"/>
  </g>
</svg>