<?xml version="1.0" encoding="UTF-8"?>
<svg id="Flat" xmlns="http://www.w3.org/2000/svg" viewBox="0 0 1581.31 1607.08">
  <defs>
    <style>
      .cls-1 {
        fill: #fff;
      }
    </style>
  </defs>
  <path class="cls-1" d="M1501.52,1606.47c53.17-109.35,79.79-229.6,79.79-360.81,0-222.92-77.16-413.34-231.25-571.24-154.33-157.89-342.83-236.82-565.72-236.82s-403.57,80.55-555.89,241.73C76.16,840.47,0,1035.74,0,1265.18c0,123.61,24.88,237.32,74.8,341.18l226.79.72c-64.59-97.68-96.76-211.64-96.76-341.9,0-186.67,55.29-339.98,165.7-459.78,110.45-119.76,249.49-179.72,416.62-179.72s308.12,59.38,420.04,178.32c111.87,118.92,167.91,267.04,167.91,444.44,0,136.59-33.16,255.93-99.45,358.06l225.86-.03Z"/>
  <path class="cls-1" d="M1349.42,83.39c25.95-26.91,49.72-54.68,71.27-83.35h-259.62c-102.1,89.48-220.66,134.21-355.82,134.21-150.24,0-278.93-44.73-385.81-134.26L155.98.12c23.18,30.68,49.01,60.28,77.42,88.87,155.57,156.5,343.97,234.77,564.88,234.77s396.45-80.16,551.14-240.38"/>
</svg>