<svg width="59" height="92" viewBox="0 0 59 92" fill="none" xmlns="http://www.w3.org/2000/svg">
<g clip-path="url(#clip0_10529_22070)">
<path d="M58.1983 1.76564C29.69 -4.79181 0.770686 12.2184 0.770686 12.2184C0.770686 12.2184 -4.79629 55.6307 28.1201 77.1743H28.1632C62.0466 55.5641 58.2022 1.76564 58.2022 1.76564H58.1983Z" fill="url(#paint0_linear_10529_22070)"/>
<path d="M56.378 2.95622C29.7137 -3.19407 2.66962 12.763 2.66962 12.763C2.66962 12.763 -2.53719 53.4858 28.2456 73.6905H28.2848C59.9719 53.4192 56.378 2.95622 56.378 2.95622Z" fill="url(#paint1_linear_10529_22070)"/>
<path d="M24.5537 20.0134C24.5537 14.5091 25.0234 9.07522 25.9278 3.75488C25.7829 3.79012 25.6342 3.82535 25.4893 3.86059C24.6006 9.14569 24.1387 14.5443 24.1387 20.0095C24.1387 22.4837 24.2365 24.9423 24.4205 27.3852C24.5576 27.4282 24.7024 27.4752 24.8512 27.53C24.6594 25.0402 24.5537 22.5307 24.5537 20.0095V20.0134Z" fill="url(#paint2_linear_10529_22070)"/>
<path d="M27.0556 20.0128C27.0556 14.3049 27.5645 8.67525 28.5354 3.16699C28.3867 3.19831 28.2418 3.22963 28.097 3.26095C27.1378 8.73789 26.6406 14.3362 26.6406 20.0128C26.6406 22.9411 26.7776 25.8499 27.036 28.7312C27.1887 28.8448 27.3375 28.9505 27.4784 29.0562C27.2005 26.0691 27.0556 23.0507 27.0556 20.0128Z" fill="url(#paint3_linear_10529_22070)"/>
<path d="M29.7685 20.013C29.7685 14.1172 30.3087 8.30746 31.3462 2.63086C31.2013 2.65435 31.0565 2.68175 30.9116 2.70524C29.8898 8.35835 29.3574 14.1446 29.3574 20.0091C29.3574 23.783 29.5767 27.5218 30.0034 31.2174C30.1639 31.3975 30.3283 31.5893 30.4967 31.8007C30.023 27.9172 29.7724 23.9827 29.7724 20.013H29.7685Z" fill="url(#paint4_linear_10529_22070)"/>
<path d="M54.3851 28.684C54.8079 26.6952 54.2637 25.5482 54.2637 25.5482C54.2637 25.5482 53.3007 27.2355 52.9366 26.9967C52.5764 26.754 53.0579 26.0923 52.9366 23.5594C52.8152 21.0265 52.0949 19.8207 52.0949 19.8207C52.0949 19.8207 51.5546 21.4493 51.0692 21.2692C50.5877 21.0891 50.7677 20.2435 50.4076 18.1921C50.0435 16.1407 48.9591 15.3577 48.9591 15.3577C48.9591 15.3577 48.8416 16.8649 48.3562 16.8649C47.8707 16.8649 47.7533 16.0819 47.029 14.3907C46.3048 12.7034 44.9776 11.6777 44.9776 11.6777C44.9776 11.6777 45.1577 13.0636 44.5548 13.0636C43.9519 13.0636 43.8932 12.6408 43.349 11.7364C42.8048 10.8321 40.9962 8.90203 40.9962 8.90203C40.9962 8.90203 41.4777 10.4093 40.8748 10.468C40.2719 10.5306 40.2132 10.1665 39.3088 8.96076C38.4045 7.75497 37.0774 7.27344 37.0774 7.27344V34.6581C37.0774 38.8823 36.3531 39.4225 34.4231 39.724C34.1921 39.7592 33.9885 39.7553 33.8045 39.724C33.6518 39.0937 33.4287 38.1737 33.2212 37.3555C32.8728 35.9579 32.6496 34.7795 31.1541 32.6811C30.9231 32.3562 30.7039 32.0704 30.4964 31.8081C30.5277 32.0469 30.5512 32.2896 30.5825 32.5284C30.4181 32.3366 30.2537 32.1526 30.0893 31.9686C30.0579 31.722 30.0305 31.4714 30.0031 31.2248C29.2123 30.34 28.4802 29.788 27.4859 29.0598C27.4976 29.2047 27.5094 29.3495 27.5211 29.4905C27.3723 29.3691 27.2275 29.2438 27.0748 29.1264C27.0631 28.9972 27.0552 28.8641 27.0435 28.7349C27.0161 28.7153 26.9887 28.6957 26.9613 28.6722C26.2057 28.1202 25.4932 27.7679 24.859 27.5369C24.8629 27.6113 24.8668 27.6857 24.8746 27.7601C24.7337 27.6896 24.5888 27.6191 24.4401 27.5526C24.4362 27.4978 24.4322 27.4469 24.4283 27.3921C23.7628 27.1885 23.2069 27.1141 22.8271 27.0515C22.0324 26.9262 21.9698 27.0828 22.2242 27.212C22.4787 27.3412 22.5727 27.5604 23.019 28.0694C23.4653 28.5783 24.3853 29.4983 24.6084 30.0385C24.8316 30.5788 24.6084 30.387 24.26 30.2304C23.9116 30.0738 22.6705 29.2125 22.3534 28.9894C22.0363 28.7662 21.9737 28.7036 22.0677 28.9894C22.1616 29.2751 22.2556 29.6588 22.7684 30.4222C23.2774 31.1856 23.8489 31.9177 24.3892 32.5206C24.9294 33.1235 25.3757 33.4445 25.4384 34.2392C25.501 35.0339 25.1213 35.9226 24.3579 37.5786C23.8411 38.6944 23.3048 39.3991 23.0033 39.7397C22.9524 39.7357 22.9015 39.7397 22.8467 39.7279C20.9167 39.4265 20.1924 38.8823 20.1924 34.662V7.27735C20.1924 7.27735 18.8653 7.75888 17.9609 8.96467C17.0566 10.1705 16.9939 10.5345 16.3911 10.4719C15.7882 10.4132 16.2697 8.90595 16.2697 8.90595C16.2697 8.90595 14.461 10.836 13.9168 11.7403C13.3727 12.6447 13.3139 13.0675 12.7111 13.0675C12.1082 13.0675 12.2882 11.6816 12.2882 11.6816C12.2882 11.6816 10.9611 12.7073 10.2368 14.3946C9.51259 16.0819 9.39514 16.8688 8.90969 16.8688C8.42425 16.8688 8.3068 15.3616 8.3068 15.3616C8.3068 15.3616 7.22237 16.1446 6.85829 18.196C6.49812 20.2474 6.6782 21.093 6.19667 21.2731C5.71514 21.4532 5.17097 19.8246 5.17097 19.8246C5.17097 19.8246 4.44671 21.0304 4.32535 23.5633C4.20399 26.0962 4.68552 26.7618 4.32535 27.0006C3.96518 27.2394 2.9982 25.5521 2.9982 25.5521C2.9982 25.5521 2.67327 26.245 2.72416 27.4821C2.75156 27.7601 2.77897 28.038 2.81029 28.3199C2.82986 28.4413 2.85335 28.5626 2.88076 28.6879C3.30356 30.6806 3.66373 31.4009 3.36229 31.7063C3.33097 31.7376 3.29182 31.7494 3.24484 31.7533C3.69897 34.7991 4.36059 38.0523 5.3119 41.3957C5.48808 41.6384 5.55854 41.8185 5.53114 42.022C5.53114 42.0416 5.51939 42.0573 5.50765 42.0768C5.82084 43.1417 6.16535 44.2105 6.5451 45.2871C7.10101 45.7529 7.44552 45.9369 7.39854 46.2423C7.37897 46.3911 7.21063 46.4889 7.00314 46.5516C7.16756 46.9861 7.33591 47.4246 7.50816 47.8631C7.93097 48.188 8.39684 48.5051 8.84705 48.7165C10.1116 49.3194 10.4169 49.4995 10.3543 49.8009C10.2956 50.1024 9.20722 50.5252 9.20722 50.5252C9.20722 50.5252 11.2586 51.3082 12.0416 51.5509C12.8246 51.7936 13.3688 51.6722 13.5488 52.0951C13.7289 52.5179 12.6445 53.4222 12.6445 53.4222C12.6445 53.4222 13.7094 54.6476 16.3637 54.3461C19.0179 54.0447 21.1476 52.1538 21.7505 50.1024C21.8171 49.8753 21.915 49.5347 22.0285 49.1237V43.6115H22.1616C22.1538 43.5175 22.1538 43.404 22.1694 43.2591C22.2556 42.4214 22.5609 40.691 23.4261 39.5752C23.4261 39.5752 24.7102 39.6574 26.19 38.4869C27.6699 37.3124 27.5289 36.6156 28.3393 35.3863C29.1497 34.157 29.5099 33.5424 30.3202 33.4054C31.1306 33.2683 31.5691 33.5894 31.9136 34.2157C32.3168 34.9478 32.5439 35.6525 32.9276 37.2654C33.3465 39.035 33.7614 40.644 33.8945 41.3095C34.0159 41.9085 34.1764 42.6876 34.2586 43.0869C34.4583 43.2278 34.6345 43.404 34.7637 43.6154H35.0181V48.372C35.2295 49.1393 35.3979 49.7539 35.5036 50.1102C36.1065 52.1616 38.2362 54.0525 40.8905 54.354C43.5448 54.6554 44.6096 53.43 44.6096 53.43C44.6096 53.43 43.5213 52.5257 43.7053 52.1029C43.8854 51.6801 44.4295 51.8014 45.2125 51.5587C45.8271 51.3708 47.2169 50.8501 47.7885 50.6309C47.8159 50.5722 47.8433 50.5174 47.8707 50.4586C47.5614 50.3255 46.9468 50.0319 46.9037 49.8088C46.845 49.5073 47.1465 49.3272 48.411 48.7243C48.5167 48.6734 48.6263 48.6147 48.732 48.556C51.1553 42.9694 52.8387 37.2185 53.9975 31.7611C53.9584 31.7533 53.9271 31.7415 53.8997 31.7141C53.5982 31.4127 53.9584 30.6884 54.3812 28.6957L54.3851 28.684ZM17.3228 23.1444C17.6399 22.7842 17.8826 22.9056 17.9218 23.5437C17.9609 24.1819 18.2037 26.6208 18.3211 27.3764C18.4385 28.1359 18.5991 28.774 18.3211 28.9737C18.0431 29.1734 17.683 29.2947 17.4833 29.4122C17.2836 29.5335 17.0448 29.7332 16.8452 29.052C16.6455 28.3747 16.5242 25.2585 16.5242 25.2585C16.5633 24.3815 17.0057 23.5007 17.3228 23.1405V23.1444ZM14.8838 25.3015C15.0835 24.6242 15.5219 24.4637 15.6825 25.2232C15.843 25.9827 16.2031 27.5017 16.4028 28.3395C16.6025 29.1773 16.9235 29.6588 16.6025 29.8585C16.2814 30.0581 16.0426 30.2969 15.843 30.4183C15.6433 30.5397 15.3614 30.6962 15.2048 30.2578C15.0443 29.8193 14.5667 28.7779 14.5667 27.7405C14.5667 26.7031 14.8877 25.3015 14.8877 25.3015H14.8838ZM11.3682 38.526C11.2077 38.7257 10.9298 38.5652 10.7693 38.2481C10.6088 37.9271 10.5305 37.4103 10.5305 37.4103C10.4913 36.8505 10.7301 36.8505 10.9298 37.0501C11.1294 37.2498 11.4505 37.2889 11.4505 37.6882C11.4505 38.0876 11.5288 38.3264 11.3682 38.526ZM12.0494 35.4489C11.9281 35.8482 11.8498 35.8482 11.7284 36.1693C11.6071 36.4864 11.4505 36.4864 11.2508 36.2476C11.0511 36.0088 10.6518 35.8482 10.6127 34.2901C10.597 33.7694 10.9728 33.7303 11.2116 34.0513C11.4505 34.3723 11.7715 34.572 11.932 34.7717C12.0925 34.9713 12.1708 35.0496 12.0534 35.4489H12.0494ZM13.2865 33.0139C13.126 33.2918 12.8872 33.6911 12.7267 34.0513C12.5662 34.4115 12.4057 34.4506 12.1277 34.0122C11.8459 33.5737 11.4074 32.5754 11.3682 31.7768C11.3291 30.9781 11.3682 30.7393 11.3682 30.7393C11.4505 29.9798 11.6893 29.9015 11.9672 30.3791C12.2452 30.8568 13.0047 32.0547 13.2474 32.2974C13.4862 32.5362 13.4471 32.7359 13.2865 33.0178V33.0139ZM13.2865 31.6162C13.0047 31.1386 12.6093 30.0581 12.6093 29.2595C12.6093 28.4608 12.7698 27.8227 12.7698 27.8227C12.8481 27.2237 13.1691 26.9419 13.4901 27.6231C13.8072 28.3003 14.6098 29.9798 14.7664 30.3008C14.9269 30.6219 15.0052 30.8215 14.7272 31.26C14.4454 31.6985 14.3279 31.7376 14.046 32.0195C13.7681 32.3014 13.5684 32.0978 13.2865 31.6202V31.6162ZM22.0559 40.7654C21.7349 41.243 21.8954 41.885 19.4173 42.4448C16.9391 43.0047 15.3419 42.0455 14.7037 41.4857C14.0656 40.9259 14.0304 40.6949 14.6724 40.7771C15.3105 40.8554 16.5437 41.0081 16.5437 41.0081C16.5437 41.0081 15.3458 40.1585 14.8094 39.266C14.1909 38.2363 14.4923 38.1894 15.291 38.5104C16.0896 38.8314 16.7825 38.851 16.7825 38.851C15.9056 38.2911 15.3458 37.0932 15.2636 35.9735C15.1853 34.8539 15.2636 34.6934 15.6629 35.2532C16.0622 35.813 16.7825 36.5294 16.7825 36.5294C16.3832 35.7308 16.2971 34.7991 16.4576 33.8399C16.6181 32.8808 16.9431 33.0139 17.1858 33.8125C17.4246 34.6111 17.8239 35.0105 17.8239 35.0105C17.8239 34.2901 17.9022 33.8125 18.1449 33.0922C18.3837 32.3718 18.7831 31.8942 18.8653 33.0139C18.9436 34.1335 19.0258 35.3315 19.5034 37.5669C19.981 39.8023 21.6605 40.2016 21.6605 40.2016C21.6605 40.2016 22.3808 40.2799 22.0598 40.7614L22.0559 40.7654ZM26.5541 29.9172C26.3662 31.4009 25.7007 31.9059 25.4188 32.1604C25.1369 32.411 24.7259 32.5088 24.3461 32.0665C23.9664 31.6241 23.019 30.2656 23.019 30.2656C22.7645 29.7293 22.925 29.7293 23.3674 29.9798C23.8098 30.2343 24.5027 30.708 24.8825 30.8646C25.2622 31.0212 25.3875 31.0525 25.6106 31.1817C25.8299 31.307 25.9277 31.307 25.5793 30.8333C25.2309 30.3596 24.1895 29.0011 23.8411 28.59C23.4927 28.179 23.0816 27.8305 22.925 27.6113C22.7684 27.3882 22.8937 27.2942 23.2695 27.3882C23.6493 27.4821 24.2169 27.5448 24.9764 27.8305C25.7359 28.1163 26.7459 28.4295 26.5541 29.9133V29.9172ZM28.5938 31.3305C28.4333 31.4871 27.1296 30.3987 27.2705 30.109C27.4076 29.8193 28.4098 30.1912 28.4098 30.1912C29.0675 30.5984 28.7582 31.1778 28.5938 31.3305ZM41.5717 25.2232C41.7322 24.4637 42.1706 24.6242 42.3703 25.3015C42.3703 25.3015 42.6913 26.6991 42.6913 27.7405C42.6913 28.7819 42.2137 29.8193 42.0532 30.2578C41.8927 30.6962 41.6147 30.5357 41.4151 30.4183C41.2154 30.2969 40.9766 30.0581 40.6556 29.8585C40.3345 29.6588 40.6556 29.1812 40.8552 28.3395C41.0549 27.5017 41.4151 25.9827 41.5717 25.2232ZM38.9369 27.3803C39.0583 26.6208 39.2971 24.1858 39.3362 23.5477C39.3754 22.9095 39.6142 22.7882 39.9352 23.1483C40.2523 23.5085 40.6947 24.3894 40.7339 25.2663C40.7339 25.2663 40.6125 28.3825 40.4168 29.0598C40.2171 29.7371 39.9744 29.5374 39.7786 29.42C39.579 29.2986 39.2188 29.1812 38.9408 28.9815C38.659 28.7819 38.8195 28.1437 38.9408 27.3842L38.9369 27.3803ZM42.6522 41.4818C42.014 42.0416 40.4168 43.0008 37.9386 42.4409C35.4605 41.8811 35.621 41.243 35.3 40.7614C34.979 40.2838 35.6993 40.2016 35.6993 40.2016C35.6993 40.2016 37.3788 39.8023 37.8564 37.5669C38.334 35.3315 38.4162 34.1296 38.4945 33.0139C38.5728 31.8942 38.9722 32.3757 39.211 33.0922C39.4498 33.8125 39.532 34.2901 39.532 35.0105C39.532 35.0105 39.9313 34.6111 40.1701 33.8125C40.4128 33.0139 40.7378 32.8808 40.8944 33.8399C41.0549 34.7991 40.9688 35.7308 40.5694 36.5294C40.5694 36.5294 41.2898 35.8091 41.6891 35.2532C42.0884 34.6934 42.1667 34.8539 42.0884 35.9735C42.0101 37.0932 41.4503 38.2911 40.5694 38.851C40.5694 38.851 41.2663 38.8314 42.0649 38.5104C42.8636 38.1894 43.1611 38.2363 42.5425 39.266C42.0062 40.1585 40.8082 41.0081 40.8082 41.0081C40.8082 41.0081 42.0414 40.8554 42.6796 40.7771C43.3177 40.6949 43.2825 40.9298 42.6443 41.4857L42.6522 41.4818ZM43.212 32.0156C42.934 31.7376 42.8127 31.6985 42.5308 31.2561C42.2528 30.8176 42.3311 30.6179 42.4917 30.2969C42.6522 29.9759 43.4508 28.3003 43.7679 27.6191C44.0889 26.938 44.406 27.2198 44.4882 27.8188C44.4882 27.8188 44.6448 28.4569 44.6448 29.2556C44.6448 30.0542 44.2455 31.1347 43.9676 31.6123C43.6896 32.0899 43.49 32.2896 43.2081 32.0117L43.212 32.0156ZM44.5313 34.0552C44.3708 33.6951 44.132 33.2957 43.9715 33.0178C43.811 32.7398 43.7718 32.5402 44.0106 32.2974C44.2494 32.0586 45.0089 30.8607 45.2908 30.3791C45.5688 29.8976 45.8076 29.9798 45.8898 30.7393C45.8898 30.7393 45.9328 30.9781 45.8898 31.7768C45.8506 32.5754 45.4122 33.5737 45.1303 34.0122C44.8523 34.4506 44.6918 34.4115 44.5313 34.0513V34.0552ZM45.5296 36.1732C45.4122 35.8522 45.3299 35.8522 45.2125 35.4528C45.0911 35.0535 45.1734 34.9752 45.3299 34.7756C45.4905 34.5759 45.8076 34.3762 46.0503 34.0552C46.2891 33.7342 46.661 33.7734 46.6493 34.294C46.6101 35.8522 46.2108 36.0127 46.0111 36.2515C45.8115 36.4903 45.651 36.4903 45.5296 36.1732ZM46.7276 37.4103C46.7276 37.4103 46.6454 37.931 46.4888 38.2481C46.3282 38.5691 46.0503 38.7257 45.8898 38.526C45.7293 38.3264 45.8115 38.0876 45.8115 37.6882C45.8115 37.2889 46.1325 37.2498 46.3282 37.0501C46.5279 36.8505 46.7706 36.8505 46.7276 37.4103Z" fill="url(#paint5_radial_10529_22070)"/>
<path d="M24.8633 27.7606C24.8555 27.6862 24.8515 27.6118 24.8476 27.5374C24.6989 27.4826 24.5579 27.4356 24.417 27.3926C24.4209 27.4474 24.4248 27.4983 24.4287 27.5531C24.5775 27.6196 24.7224 27.6901 24.8633 27.7606Z" fill="url(#paint6_linear_10529_22070)"/>
<path d="M24.8633 27.7606C24.8555 27.6862 24.8515 27.6118 24.8476 27.5374C24.6989 27.4826 24.5579 27.4356 24.417 27.3926C24.4209 27.4474 24.4248 27.4983 24.4287 27.5531C24.5775 27.6196 24.7224 27.6901 24.8633 27.7606Z" fill="url(#paint7_radial_10529_22070)"/>
<path d="M27.5177 29.4909C27.502 29.3461 27.4942 29.2012 27.4824 29.0603C27.3415 28.9585 27.1927 28.8489 27.04 28.7354C27.0518 28.8645 27.0596 28.9976 27.0714 29.1268C27.224 29.2443 27.3689 29.3696 27.5177 29.4909Z" fill="url(#paint8_linear_10529_22070)"/>
<path d="M27.5177 29.4909C27.502 29.3461 27.4942 29.2012 27.4824 29.0603C27.3415 28.9585 27.1927 28.8489 27.04 28.7354C27.0518 28.8645 27.0596 28.9976 27.0714 29.1268C27.224 29.2443 27.3689 29.3696 27.5177 29.4909Z" fill="url(#paint9_radial_10529_22070)"/>
<path d="M30.5784 32.5253C30.5471 32.2865 30.5197 32.0438 30.4923 31.805C30.324 31.5936 30.1595 31.4018 29.999 31.2217C30.0264 31.4683 30.0538 31.7189 30.0851 31.9655C30.2496 32.1495 30.4179 32.3335 30.5784 32.5253Z" fill="url(#paint10_linear_10529_22070)"/>
<path d="M30.5784 32.5253C30.5471 32.2865 30.5197 32.0438 30.4923 31.805C30.324 31.5936 30.1595 31.4018 29.999 31.2217C30.0264 31.4683 30.0538 31.7189 30.0851 31.9655C30.2496 32.1495 30.4179 32.3335 30.5784 32.5253Z" fill="url(#paint11_radial_10529_22070)"/>
<path d="M42.6837 40.774C42.0455 40.8523 40.8124 41.005 40.8124 41.005C40.8124 41.005 42.0103 40.1555 42.5466 39.2629C43.1652 38.2333 42.8638 38.1863 42.069 38.5073C41.2704 38.8283 40.5735 38.8479 40.5735 38.8479C41.4505 38.2881 42.0103 37.0901 42.0925 35.9704C42.1747 34.8508 42.0925 34.6903 41.6932 35.2501C41.2939 35.8099 40.5735 36.5264 40.5735 36.5264C40.9729 35.7277 41.059 34.796 40.8985 33.8368C40.738 32.8777 40.413 33.0108 40.1742 33.8094C39.9354 34.6081 39.5361 35.0074 39.5361 35.0074C39.5361 34.287 39.4578 33.8094 39.2151 33.0891C38.9763 32.3687 38.5769 31.8911 38.4987 33.0108C38.4164 34.1304 38.3381 35.3284 37.8605 37.5638C37.3829 39.7992 35.7034 40.1985 35.7034 40.1985C35.7034 40.1985 34.9831 40.2768 35.3041 40.7584C35.6212 41.236 35.4646 41.878 37.9427 42.4378C40.4209 42.9977 42.0181 42.0385 42.6563 41.4787C43.2944 40.9189 43.3296 40.6879 42.6915 40.7701L42.6837 40.774Z" fill="white"/>
<path d="M21.6564 40.2061C21.6564 40.2061 19.9769 39.8068 19.4993 37.5714C19.0217 35.336 18.9395 34.1341 18.8612 33.0183C18.7829 31.8987 18.3796 32.3802 18.1408 33.0966C17.902 33.817 17.8198 34.2946 17.8198 35.0149C17.8198 35.0149 17.4205 34.6156 17.1817 33.817C16.9429 33.0183 16.614 32.8852 16.4535 33.8444C16.293 34.8035 16.3791 35.7353 16.7784 36.5339C16.7784 36.5339 16.0581 35.8136 15.6588 35.2577C15.2595 34.6978 15.1812 34.8583 15.2595 35.978C15.3377 37.0977 15.8976 38.2956 16.7784 38.8554C16.7784 38.8554 16.0855 38.8359 15.2869 38.5149C14.4882 38.1938 14.1868 38.2408 14.8053 39.2704C15.3417 40.163 16.5396 41.0126 16.5396 41.0126C16.5396 41.0126 15.3064 40.8599 14.6683 40.7816C14.0302 40.6994 14.0615 40.9343 14.6996 41.4902C15.3377 42.05 16.935 43.0091 19.4132 42.4493C21.8913 41.8895 21.7308 41.2514 22.0518 40.7698C22.3728 40.2922 21.6525 40.21 21.6525 40.21L21.6564 40.2061Z" fill="white"/>
<path d="M17.4797 29.4201C17.6793 29.2988 18.0395 29.1813 18.3174 28.9817C18.5954 28.782 18.4349 28.1439 18.3174 27.3844C18.1961 26.6249 17.9573 24.1898 17.9181 23.5517C17.879 22.9136 17.6402 22.7922 17.3191 23.1524C16.9981 23.5126 16.5597 24.3934 16.5205 25.2703C16.5205 25.2703 16.6419 28.3866 16.8415 29.0639C17.0412 29.7412 17.28 29.5415 17.4797 29.4241V29.4201Z" fill="white"/>
<path d="M15.8427 30.4191C16.0423 30.2977 16.2811 30.0589 16.6022 29.8593C16.9232 29.6596 16.6022 29.182 16.4025 28.3403C16.2028 27.5025 15.8427 25.9835 15.6822 25.224C15.5216 24.4645 15.0832 24.6251 14.8835 25.3023C14.8835 25.3023 14.5625 26.6999 14.5625 27.7413C14.5625 28.7827 15.044 29.8201 15.2006 30.2586C15.3611 30.6971 15.6391 30.5365 15.8388 30.4191H15.8427Z" fill="white"/>
<path d="M14.7234 31.2563C15.0014 30.8178 14.9231 30.6182 14.7626 30.2972C14.6021 29.9761 13.8034 28.3006 13.4863 27.6194C13.1653 26.9382 12.8482 27.22 12.766 27.819C12.766 27.819 12.6055 28.4572 12.6055 29.2558C12.6055 30.0544 13.0048 31.1349 13.2827 31.6126C13.5607 32.0902 13.7604 32.2898 14.0422 32.0119C14.3241 31.7339 14.4416 31.6948 14.7234 31.2524V31.2563Z" fill="white"/>
<path d="M11.967 30.3793C11.689 29.8977 11.4502 29.9799 11.368 30.7394C11.368 30.7394 11.3288 30.9782 11.368 31.7769C11.4071 32.5755 11.8456 33.5738 12.1275 34.0123C12.4054 34.4508 12.5659 34.4116 12.7265 34.0514C12.887 33.6913 13.1258 33.2919 13.2863 33.014C13.4468 32.736 13.4859 32.5364 13.2471 32.2936C13.0083 32.0548 12.2488 30.8569 11.967 30.3754V30.3793Z" fill="white"/>
<path d="M11.2079 34.0516C10.969 33.7306 10.5932 33.7697 10.6089 34.2904C10.648 35.8485 11.0473 36.009 11.247 36.2478C11.4467 36.4867 11.6072 36.4867 11.7246 36.1695C11.846 35.8485 11.9243 35.8485 12.0456 35.4492C12.167 35.0499 12.0848 34.9716 11.9243 34.7719C11.7638 34.5723 11.4467 34.3726 11.2039 34.0516H11.2079Z" fill="white"/>
<path d="M10.9299 37.0511C10.7303 36.8514 10.4915 36.8514 10.5306 37.4113C10.5306 37.4113 10.6089 37.9319 10.7694 38.249C10.9299 38.5701 11.2079 38.7267 11.3684 38.527C11.5289 38.3273 11.4506 38.0885 11.4506 37.6892C11.4506 37.2899 11.1296 37.2507 10.9299 37.0511Z" fill="white"/>
<path d="M39.771 29.4201C39.9706 29.5415 40.2094 29.7412 40.4091 29.06C40.6087 28.3827 40.7262 25.2664 40.7262 25.2664C40.687 24.3895 40.2447 23.5087 39.9276 23.1485C39.6065 22.7883 39.3677 22.9097 39.3286 23.5478C39.2894 24.1859 39.0506 26.6249 38.9293 27.3805C38.8079 28.14 38.6474 28.7781 38.9293 28.9778C39.2072 29.1774 39.5674 29.2988 39.767 29.4162L39.771 29.4201Z" fill="white"/>
<path d="M40.6518 29.8593C40.9689 30.0589 41.2117 30.2977 41.4113 30.4191C41.611 30.5405 41.8889 30.6971 42.0495 30.2586C42.21 29.8201 42.6876 28.7788 42.6876 27.7413C42.6876 26.7039 42.3666 25.3023 42.3666 25.3023C42.1669 24.6251 41.7284 24.4645 41.5679 25.224C41.4074 25.9835 41.0472 27.5025 40.8515 28.3403C40.6518 29.1781 40.3308 29.6596 40.6518 29.8593Z" fill="white"/>
<path d="M44.6446 29.2597C44.6446 28.4611 44.488 27.8229 44.488 27.8229C44.4058 27.224 44.0887 26.9421 43.7677 27.6233C43.4467 28.3006 42.648 29.98 42.4914 30.3011C42.3309 30.6221 42.2487 30.8217 42.5306 31.2602C42.8125 31.6987 42.9299 31.7378 43.2118 32.0197C43.4936 32.3016 43.6894 32.098 43.9713 31.6204C44.2492 31.1428 44.6485 30.0623 44.6485 29.2636L44.6446 29.2597Z" fill="white"/>
<path d="M45.8815 30.7397C45.8032 29.9802 45.5605 29.9019 45.2825 30.3795C45.0006 30.8572 44.2411 32.0551 44.0023 32.2978C43.7635 32.5366 43.8027 32.7363 43.9632 33.0182C44.1237 33.2961 44.3625 33.6955 44.523 34.0556C44.6835 34.4158 44.844 34.4549 45.122 34.0165C45.3999 33.578 45.8423 32.5797 45.8815 31.7811C45.9245 30.9824 45.8815 30.7436 45.8815 30.7436V30.7397Z" fill="white"/>
<path d="M46.0033 36.2518C46.203 36.0129 46.6023 35.8524 46.6414 34.2943C46.6571 33.7736 46.2813 33.7345 46.0425 34.0555C45.8037 34.3765 45.4826 34.5762 45.3221 34.7758C45.1616 34.9755 45.0833 35.0538 45.2047 35.4531C45.3221 35.8524 45.4043 35.8524 45.5218 36.1735C45.6392 36.4906 45.7997 36.4906 46.0033 36.2518Z" fill="white"/>
<path d="M46.32 37.0511C46.1204 37.2507 45.8033 37.2899 45.8033 37.6892C45.8033 38.0885 45.7211 38.3273 45.8816 38.527C46.0421 38.7267 46.32 38.5661 46.4806 38.249C46.6411 37.928 46.7194 37.4113 46.7194 37.4113C46.7585 36.8514 46.5197 36.8514 46.32 37.0511Z" fill="white"/>
<path d="M24.3028 42.622C25.1171 42.6298 25.9197 42.943 26.3268 43.6046H26.4991C26.9023 42.943 27.7088 42.6298 28.5231 42.622C29.3335 42.6298 30.1399 42.943 30.5432 43.6046H30.7194C31.1226 42.943 31.9291 42.6298 32.7434 42.622C33.2954 42.6259 33.8356 42.7786 34.2584 43.0761C34.1762 42.6768 34.0118 41.8977 33.8943 41.2987C33.7612 40.6371 33.3462 39.0242 32.9274 37.2546C32.5437 35.6417 32.3166 34.937 31.9134 34.2049C31.5689 33.5786 31.1304 33.2575 30.32 33.3946C29.5097 33.5355 29.1495 34.1462 28.3391 35.3755C27.5287 36.6048 27.6696 37.3016 26.1898 38.4761C24.71 39.6506 23.4259 39.5644 23.4259 39.5644C22.5607 40.6802 22.2514 42.4106 22.1692 43.2483C22.1536 43.3932 22.1536 43.5106 22.1614 43.6007H22.2828C22.686 42.9391 23.4925 42.6259 24.3068 42.618L24.3028 42.622Z" fill="white"/>
<path d="M24.9726 27.835C24.2131 27.5492 23.6454 27.4866 23.2657 27.3927C22.8898 27.2987 22.7606 27.3927 22.9212 27.6158C23.0778 27.835 23.4888 28.1835 23.8372 28.5945C24.1857 29.0056 25.227 30.3641 25.5755 30.8378C25.9239 31.3115 25.826 31.3115 25.6068 31.1862C25.3836 31.0609 25.2584 31.0296 24.8786 30.8691C24.4989 30.7125 23.8059 30.2388 23.3635 29.9843C22.9212 29.7338 22.7646 29.7338 23.0151 30.2701C23.0151 30.2701 23.9625 31.6286 24.3423 32.071C24.722 32.5133 25.1331 32.4155 25.4149 32.1649C25.7007 31.9144 26.3623 31.4054 26.5503 29.9217C26.7382 28.4379 25.7281 28.1208 24.9726 27.839V27.835Z" fill="white"/>
<path d="M34.7635 43.6076C34.6343 43.3923 34.4581 43.2201 34.2585 43.0791C33.8356 42.7816 33.2915 42.6289 32.7434 42.625C31.9291 42.6328 31.1226 42.946 30.7194 43.6076H30.5432C30.14 42.946 29.3335 42.6328 28.5231 42.625C27.7088 42.6328 26.9063 42.946 26.4991 43.6076H26.3269C25.9236 42.946 25.1172 42.6328 24.3029 42.625C23.4925 42.6328 22.686 42.946 22.2789 43.6076H22.0244V68.9213C22.2632 69.1327 22.502 69.3442 22.7448 69.5516V44.328H22.7604C22.8348 43.776 23.4925 43.3453 24.3029 43.3453C25.1133 43.3453 25.771 43.776 25.8453 44.328H25.861V72.0259C26.2251 72.2921 26.5892 72.5583 26.965 72.8206V44.328H26.9807C27.0551 43.776 27.7128 43.3453 28.5231 43.3453C29.3335 43.3453 29.9912 43.776 30.0656 44.328H30.0813V72.4761C30.4532 72.2138 30.8251 71.9515 31.1853 71.6813V44.328H31.2009C31.2753 43.776 31.933 43.3453 32.7434 43.3453C33.5538 43.3453 34.2115 43.776 34.2859 44.328H34.3015V69.1288C34.5442 68.9135 34.787 68.7021 35.0219 68.4829V43.6076H34.7674H34.7635Z" fill="#0054A6"/>
<path d="M25.8496 44.3244C25.7752 43.7724 25.1175 43.3418 24.3072 43.3418C23.4968 43.3418 22.8352 43.7724 22.7647 44.3244H22.749V69.5481C23.7395 70.3976 24.7809 71.2237 25.8653 72.0223V44.3244H25.8496Z" fill="#0054A6"/>
<path d="M25.8496 44.3244C25.7752 43.7724 25.1175 43.3418 24.3072 43.3418C23.4968 43.3418 22.8352 43.7724 22.7647 44.3244H22.749V69.5481C23.7395 70.3976 24.7809 71.2237 25.8653 72.0223V44.3244H25.8496Z" fill="url(#paint12_linear_10529_22070)"/>
<path d="M30.0654 44.3244C29.9911 43.7724 29.3334 43.3418 28.523 43.3418C27.7126 43.3418 27.0549 43.7724 26.9805 44.3244H26.9648V72.817C27.3837 73.1106 27.8105 73.4004 28.245 73.6861H28.2842C28.8988 73.2946 29.4939 72.8875 30.0811 72.4725V44.3244H30.0654Z" fill="#0054A6"/>
<path d="M30.0654 44.3244C29.9911 43.7724 29.3334 43.3418 28.523 43.3418C27.7126 43.3418 27.0549 43.7724 26.9805 44.3244H26.9648V72.817C27.3837 73.1106 27.8105 73.4004 28.245 73.6861H28.2842C28.8988 73.2946 29.4939 72.8875 30.0811 72.4725V44.3244H30.0654Z" fill="url(#paint13_linear_10529_22070)"/>
<path d="M34.2979 44.3244H34.2822C34.2079 43.7724 33.5502 43.3418 32.7398 43.3418C31.9294 43.3418 31.2717 43.7724 31.1973 44.3244H31.1816V71.6778C32.2661 70.8635 33.3035 70.0101 34.2979 69.1253V44.3244Z" fill="#0054A6"/>
<path d="M34.2979 44.3244H34.2822C34.2079 43.7724 33.5502 43.3418 32.7398 43.3418C31.9294 43.3418 31.2717 43.7724 31.1973 44.3244H31.1816V71.6778C32.2661 70.8635 33.3035 70.0101 34.2979 69.1253V44.3244Z" fill="url(#paint14_linear_10529_22070)"/>
<path d="M28.4057 30.1917C28.4057 30.1917 27.4074 29.8197 27.2665 30.1094C27.1256 30.3992 28.4292 31.4875 28.5897 31.3309C28.7542 31.1782 29.0634 30.5988 28.4057 30.1917Z" fill="white"/>
<path d="M28.2529 74.6066C60.543 53.5444 57.4111 2.46289 57.4111 2.46289L55.9586 3.18715C55.9586 3.25761 59.5603 53.3878 28.3939 72.5043H28.343L28.2568 74.6066H28.2529Z" fill="url(#paint15_linear_10529_22070)"/>
<path d="M57.4115 2.4621C29.8859 -3.86437 1.96484 12.5547 1.96484 12.5547L3.23327 12.7622C3.23327 12.7622 29.5179 -2.76428 55.9591 3.18244L57.4115 2.45819V2.4621Z" fill="url(#paint16_linear_10529_22070)"/>
<path d="M28.3391 72.5074C-1.39059 53.1756 3.09588 13.8779 3.2329 12.7661L1.96447 12.5586C1.96447 12.5586 -2.62379 54.7533 28.253 74.6097L28.3391 72.5113V72.5074Z" fill="url(#paint17_linear_10529_22070)"/>
<path d="M13.0401 81.8644C12.4372 81.3594 11.662 81.0227 10.8555 81.0227C10.2527 81.0227 9.44619 81.375 9.44619 82.0836C9.44619 82.7922 10.3349 83.1093 10.9064 83.2933L11.7481 83.5478C13.5098 84.0685 14.8722 84.9571 14.8722 87.0085C14.8722 88.2691 14.5708 89.5611 13.5607 90.4184C12.5703 91.2601 11.2431 91.6125 9.96687 91.6125C8.36959 91.6125 6.80755 91.0722 5.51172 90.1679L6.925 87.5136C7.74712 88.2378 8.72193 88.8251 9.84942 88.8251C10.6207 88.8251 11.4467 88.4375 11.4467 87.5488C11.4467 86.6601 10.1509 86.3039 9.44619 86.1042C7.37912 85.517 6.01674 84.9767 6.01674 82.526C6.01674 80.0753 7.84891 78.2744 10.3858 78.2744C11.662 78.2744 13.2241 78.6776 14.3515 79.3158L13.0401 81.8722V81.8644Z" fill="white"/>
<path d="M19.6093 89.0719L18.7362 91.2721H15.2402L20.1143 78.5996H23.7121L28.4843 91.2721H24.9727L24.1505 89.0719H19.6132H19.6093ZM21.9112 82.5184H21.876L20.5136 86.5508H23.254L21.9112 82.5184Z" fill="white"/>
<path d="M38.2284 82.8549C37.5551 81.9466 36.4628 81.4612 35.3393 81.4612C33.3231 81.4612 31.9607 83.0075 31.9607 84.9728C31.9607 86.9381 33.3387 88.4179 35.3901 88.4179C36.4667 88.4179 37.5394 87.8972 38.2324 87.0751V91.0213C37.1401 91.358 36.3493 91.6086 35.3236 91.6086C33.558 91.6086 31.8785 90.9352 30.567 89.7412C29.1733 88.4806 28.5312 86.8324 28.5312 84.9532C28.5312 83.2229 29.185 81.559 30.3987 80.3141C31.6436 79.0378 33.4405 78.2627 35.2218 78.2627C36.2788 78.2627 37.2536 78.4976 38.2284 78.9008V82.851V82.8549Z" fill="white"/>
<path d="M43.827 89.0719L42.954 91.2721H39.458L44.3321 78.5996H47.9298L52.7021 91.2721H49.1904L48.3683 89.0719H43.8309H43.827ZM46.129 82.5184H46.0938L44.7314 86.5508H47.4718L46.1251 82.5184H46.129Z" fill="white"/>
</g>
<defs>
<linearGradient id="paint0_linear_10529_22070" x1="29.3729" y1="77.1743" x2="29.3729" y2="0.2584" gradientUnits="userSpaceOnUse">
<stop stop-color="#B57912"/>
<stop offset="0.3" stop-color="#FFCB05"/>
<stop offset="0.37" stop-color="#FDCC0E"/>
<stop offset="0.49" stop-color="#FACF28"/>
<stop offset="0.63" stop-color="#F4D552"/>
<stop offset="0.77" stop-color="#EFDC81"/>
<stop offset="0.81" stop-color="#EDD577"/>
<stop offset="0.88" stop-color="#E8C25D"/>
<stop offset="0.96" stop-color="#E0A433"/>
<stop offset="1" stop-color="#DC931B"/>
</linearGradient>
<linearGradient id="paint1_linear_10529_22070" x1="35.0333" y1="71.7331" x2="23.134" y2="4.23952" gradientUnits="userSpaceOnUse">
<stop offset="0.06" stop-color="#680102"/>
<stop offset="0.09" stop-color="#830709"/>
<stop offset="0.11" stop-color="#970A0E"/>
<stop offset="0.14" stop-color="#A30D11"/>
<stop offset="0.16" stop-color="#A70E13"/>
<stop offset="0.21" stop-color="#C11319"/>
<stop offset="0.27" stop-color="#E11921"/>
<stop offset="0.3" stop-color="#ED1C24"/>
<stop offset="0.7" stop-color="#ED1C24"/>
<stop offset="0.74" stop-color="#E31A21"/>
<stop offset="0.82" stop-color="#C9141B"/>
<stop offset="0.89" stop-color="#A70E13"/>
<stop offset="0.92" stop-color="#A00C11"/>
<stop offset="0.95" stop-color="#8F090C"/>
<stop offset="0.98" stop-color="#720304"/>
<stop offset="1" stop-color="#600000"/>
</linearGradient>
<linearGradient id="paint2_linear_10529_22070" x1="25.0313" y1="27.761" x2="25.0313" y2="3.19114" gradientUnits="userSpaceOnUse">
<stop offset="0.11" stop-color="#ED1C24"/>
<stop offset="0.19" stop-color="#EE2E36"/>
<stop offset="0.35" stop-color="#F25F64"/>
<stop offset="0.58" stop-color="#F8ACAF"/>
<stop offset="0.8" stop-color="white"/>
</linearGradient>
<linearGradient id="paint3_linear_10529_22070" x1="27.588" y1="29.4907" x2="27.588" y2="2.46231" gradientUnits="userSpaceOnUse">
<stop offset="0.11" stop-color="#ED1C24"/>
<stop offset="0.19" stop-color="#EE2E36"/>
<stop offset="0.35" stop-color="#F25F64"/>
<stop offset="0.58" stop-color="#F8ACAF"/>
<stop offset="0.8" stop-color="white"/>
</linearGradient>
<linearGradient id="paint4_linear_10529_22070" x1="30.3479" y1="32.525" x2="30.3479" y2="1.6952" gradientUnits="userSpaceOnUse">
<stop offset="0.11" stop-color="#ED1C24"/>
<stop offset="0.19" stop-color="#EE2E36"/>
<stop offset="0.35" stop-color="#F25F64"/>
<stop offset="0.58" stop-color="#F8ACAF"/>
<stop offset="0.8" stop-color="white"/>
</linearGradient>
<radialGradient id="paint5_radial_10529_22070" cx="0" cy="0" r="1" gradientUnits="userSpaceOnUse" gradientTransform="translate(26.2976 30.8294) scale(25.1884 25.1884)">
<stop offset="0.17" stop-color="#0054A6"/>
<stop offset="0.6" stop-color="#0052A4"/>
<stop offset="0.75" stop-color="#004F9D"/>
<stop offset="0.86" stop-color="#004891"/>
<stop offset="0.95" stop-color="#003F80"/>
<stop offset="1" stop-color="#003873"/>
</radialGradient>
<linearGradient id="paint6_linear_10529_22070" x1="24.6441" y1="27.7495" x2="24.6441" y2="4.6538" gradientUnits="userSpaceOnUse">
<stop offset="0.11" stop-color="#ED1C24"/>
<stop offset="0.19" stop-color="#EE2E36"/>
<stop offset="0.35" stop-color="#F25F64"/>
<stop offset="0.58" stop-color="#F8ACAF"/>
<stop offset="0.8" stop-color="white"/>
</linearGradient>
<radialGradient id="paint7_radial_10529_22070" cx="0" cy="0" r="1" gradientUnits="userSpaceOnUse" gradientTransform="translate(25.8974 30.6347) scale(25.1923 23.6809)">
<stop offset="0.17" stop-color="#0054A6"/>
<stop offset="0.6" stop-color="#0052A4"/>
<stop offset="0.75" stop-color="#004F9D"/>
<stop offset="0.86" stop-color="#004891"/>
<stop offset="0.95" stop-color="#003F80"/>
<stop offset="1" stop-color="#003873"/>
</radialGradient>
<linearGradient id="paint8_linear_10529_22070" x1="27.2749" y1="29.4909" x2="27.2749" y2="2.4625" gradientUnits="userSpaceOnUse">
<stop offset="0.11" stop-color="#ED1C24"/>
<stop offset="0.19" stop-color="#EE2E36"/>
<stop offset="0.35" stop-color="#F25F64"/>
<stop offset="0.58" stop-color="#F8ACAF"/>
<stop offset="0.8" stop-color="white"/>
</linearGradient>
<radialGradient id="paint9_radial_10529_22070" cx="0" cy="0" r="1" gradientUnits="userSpaceOnUse" gradientTransform="translate(28.6256 20.8553) scale(25.1924 25.1923)">
<stop offset="0.17" stop-color="#0054A6"/>
<stop offset="0.6" stop-color="#0052A4"/>
<stop offset="0.75" stop-color="#004F9D"/>
<stop offset="0.86" stop-color="#004891"/>
<stop offset="0.95" stop-color="#003F80"/>
<stop offset="1" stop-color="#003873"/>
</radialGradient>
<linearGradient id="paint10_linear_10529_22070" x1="30.2887" y1="32.5253" x2="30.2887" y2="1.69553" gradientUnits="userSpaceOnUse">
<stop offset="0.11" stop-color="#ED1C24"/>
<stop offset="0.19" stop-color="#EE2E36"/>
<stop offset="0.35" stop-color="#F25F64"/>
<stop offset="0.58" stop-color="#F8ACAF"/>
<stop offset="0.8" stop-color="white"/>
</linearGradient>
<radialGradient id="paint11_radial_10529_22070" cx="0" cy="0" r="1" gradientUnits="userSpaceOnUse" gradientTransform="translate(28.6249 15.0988) scale(25.1923 25.1923)">
<stop offset="0.17" stop-color="#0054A6"/>
<stop offset="0.6" stop-color="#0052A4"/>
<stop offset="0.75" stop-color="#004F9D"/>
<stop offset="0.86" stop-color="#004891"/>
<stop offset="0.95" stop-color="#003F80"/>
<stop offset="1" stop-color="#003873"/>
</radialGradient>
<linearGradient id="paint12_linear_10529_22070" x1="24.3032" y1="77.648" x2="24.3032" y2="43.3418" gradientUnits="userSpaceOnUse">
<stop offset="0.19" stop-color="#B97C0F"/>
<stop offset="0.25" stop-color="#C58D0C"/>
<stop offset="0.36" stop-color="#DAA907"/>
<stop offset="0.48" stop-color="#EABE04"/>
<stop offset="0.62" stop-color="#F6CE01"/>
<stop offset="0.77" stop-color="#FCD700"/>
<stop offset="1" stop-color="#FFDA00"/>
</linearGradient>
<linearGradient id="paint13_linear_10529_22070" x1="28.523" y1="79.1083" x2="28.523" y2="43.3418" gradientUnits="userSpaceOnUse">
<stop offset="0.18" stop-color="#B97C0F"/>
<stop offset="0.24" stop-color="#C58D0C"/>
<stop offset="0.36" stop-color="#DAA907"/>
<stop offset="0.48" stop-color="#EABE04"/>
<stop offset="0.62" stop-color="#F6CE01"/>
<stop offset="0.77" stop-color="#FCD700"/>
<stop offset="1" stop-color="#FFDA00"/>
</linearGradient>
<linearGradient id="paint14_linear_10529_22070" x1="32.7398" y1="77.2604" x2="32.7398" y2="-29.7532" gradientUnits="userSpaceOnUse">
<stop offset="0.18" stop-color="#B97C0F"/>
<stop offset="0.24" stop-color="#C58D0C"/>
<stop offset="0.36" stop-color="#DAA907"/>
<stop offset="0.48" stop-color="#EABE04"/>
<stop offset="0.62" stop-color="#F6CE01"/>
<stop offset="0.77" stop-color="#FCD700"/>
<stop offset="1" stop-color="#FFDA00"/>
</linearGradient>
<linearGradient id="paint15_linear_10529_22070" x1="46.0931" y1="3.884" x2="18.6661" y2="65.2007" gradientUnits="userSpaceOnUse">
<stop stop-color="#B77F12"/>
<stop offset="0.69" stop-color="#FFCB05"/>
<stop offset="1" stop-color="#F4DC80"/>
</linearGradient>
<linearGradient id="paint16_linear_10529_22070" x1="1.56161" y1="7.04198" x2="55.3099" y2="-2.74148" gradientUnits="userSpaceOnUse">
<stop stop-color="#FFEEA6"/>
<stop offset="0.04" stop-color="#FFEB9C"/>
<stop offset="0.12" stop-color="#FFE582"/>
<stop offset="0.2" stop-color="#FFDD60"/>
<stop offset="0.4" stop-color="#E9BB47"/>
<stop offset="0.66" stop-color="#D3972C"/>
<stop offset="0.87" stop-color="#C5811C"/>
<stop offset="1" stop-color="#C07916"/>
</linearGradient>
<linearGradient id="paint17_linear_10529_22070" x1="11.9402" y1="14.1363" x2="34.9665" y2="68.4758" gradientUnits="userSpaceOnUse">
<stop stop-color="#C48715"/>
<stop offset="1" stop-color="#FFCB05"/>
</linearGradient>
<clipPath id="clip0_10529_22070">
<rect width="58.3319" height="92" fill="white" transform="translate(0.230469)"/>
</clipPath>
</defs>
</svg>
